<svg xmlns="http://www.w3.org/2000/svg" width="100%" viewBox="0 0 116 25" fill="none" class="image-14"><g clip-path="url(#clip0_1111_2)"><path d="M0 24.1665V1.89966H14.9273V5.05506H3.12014V11.2594L10.9201 11.2947V14.5565H3.12014V24.1651H0V24.1665Z" fill="black"></path><path d="M21.4505 24.1664H18.3303V6.47369H21.4505V24.1664Z" fill="black"></path><path d="M104.226 15.0862L97.4534 6.39984H101.425L106.176 12.5336L110.927 6.39984H114.898L108.197 15.0862L115.112 24.1631H111.212L106.177 17.6394L101.142 24.1631H97.2424L104.226 15.0862Z" fill="black"></path><path d="M29.0732 8.92042C29.2382 8.28229 29.5516 7.75595 30.0127 7.34272C30.4739 6.9295 30.9703 6.61076 31.5013 6.38519C32.0336 6.16028 32.5586 6.00723 33.079 5.92405C33.5987 5.84154 34.0006 5.80029 34.284 5.80029C35.6308 5.80029 36.7953 5.96598 37.7768 6.29669C38.7576 6.62806 39.5615 7.14776 40.1883 7.85642C40.8144 8.56509 41.2816 9.49401 41.589 10.6398C41.8957 11.787 42.0501 13.1751 42.0501 14.8054V24.201H38.8588V14.6989C38.8588 13.9669 38.7989 13.2689 38.6811 12.6068C38.5627 11.9454 38.3378 11.3545 38.0071 10.8335C37.6757 10.3138 37.2272 9.89393 36.6602 9.57453C36.0933 9.25513 35.348 9.06016 34.4264 8.98963C33.7883 8.98963 33.1502 9.10807 32.5114 9.34429C31.8732 9.58052 31.3063 9.92919 30.8092 10.3903C30.3128 10.8514 29.9056 11.4124 29.5862 12.0745C29.2668 12.7366 29.1078 13.4925 29.1078 14.3436V24.2004H25.8818V6.43842H29.1078L29.0718 8.92042H29.0732Z" fill="black"></path><path d="M73.4746 24.128H70.1415L62.802 6.43524H66.1351L73.4746 24.128ZM73.4393 24.128H70.1063L77.4458 6.43524H80.7789L73.4393 24.128Z" fill="black"></path><path d="M19.8726 3.81486C19.3949 3.81486 18.983 3.65516 18.6369 3.33642C18.2903 3.01702 18.1179 2.62177 18.1179 2.14865C18.1179 1.67554 18.2909 1.28029 18.6369 0.960887C18.9836 0.641487 19.3955 0.482452 19.8726 0.482452C20.3497 0.482452 20.7969 0.642152 21.1436 0.960887C21.4902 1.28029 21.6633 1.67554 21.6633 2.14865C21.6633 2.62177 21.4896 3.01702 21.1436 3.33642C20.7969 3.65582 20.3737 3.81486 19.8726 3.81486Z" fill="#4154E0"></path><path d="M80.2353 15.1573C80.2353 16.4336 80.4835 17.6393 80.9799 18.7739C81.4763 19.9084 82.1503 20.9012 83.0008 21.7523C83.8518 22.6033 84.8506 23.2767 85.9971 23.7731C87.1443 24.2695 88.3547 24.5177 89.6316 24.5177C90.9086 24.5177 92.1555 24.2695 93.3014 23.7731C94.4486 23.2767 95.4527 22.6027 96.3151 21.7523C97.1781 20.9012 97.8575 19.9084 98.3539 18.7739C98.8031 17.7471 99.0473 16.6612 99.0892 15.5173L89.3402 5.76831C88.1704 5.80358 87.0565 6.04712 85.9965 6.50559C84.8499 7.00199 83.8518 7.67606 83.0001 8.52646C82.149 9.37753 81.4756 10.3703 80.9792 11.5049C80.4828 12.6394 80.2353 13.8571 80.2353 15.1573ZM83.4972 15.1573C83.4972 14.3063 83.6569 13.5144 83.9756 12.7818C84.295 12.0498 84.7322 11.411 85.2878 10.8667C85.8434 10.3231 86.4929 9.89123 87.2381 9.5725C87.9827 9.2531 88.7806 9.09406 89.6316 9.09406C90.4827 9.09406 91.2858 9.25376 92.0431 9.5725C92.7997 9.8919 93.4558 10.3231 94.0107 10.8667C94.5664 11.411 95.0102 12.0485 95.3402 12.7818C95.6716 13.5144 95.8366 14.3063 95.8366 15.1573C95.8366 16.0084 95.6716 16.8002 95.3402 17.5329C95.0095 18.2655 94.5664 18.9096 94.0107 19.4652C93.4558 20.0209 92.7997 20.458 92.0431 20.7774C91.2872 21.0968 90.4834 21.2559 89.6316 21.2559C88.7799 21.2559 87.9834 21.0962 87.2381 20.7774C86.4935 20.458 85.8441 20.0215 85.2878 19.4652C84.7328 18.9103 84.295 18.2662 83.9756 17.5329C83.6562 16.8009 83.4972 16.0084 83.4972 15.1573Z" fill="black"></path><path d="M89.3574 5.77386V13.7149C89.3574 14.7038 90.1593 15.5056 91.1481 15.5056H99.0891" fill="#4154E0"></path><path d="M53.4163 24.4826C52.1161 24.4826 50.8931 24.2344 49.7466 23.738C48.5994 23.2416 47.5953 22.5675 46.7329 21.7171C45.8699 20.866 45.1905 19.8732 44.6941 18.7387C44.1977 17.6042 43.9495 16.3984 43.9495 15.1222C43.9495 13.8459 44.1977 12.6049 44.6941 11.4697C45.1905 10.3352 45.8692 9.34234 46.7329 8.49128C47.5953 7.64021 48.6001 6.96681 49.7466 6.47041C50.8931 5.97401 52.1161 5.7258 53.4163 5.7258C54.7166 5.7258 55.9037 5.97401 57.0508 6.47041C58.1974 6.96681 59.1955 7.64087 60.0472 8.49128C60.8983 9.34234 61.5717 10.3352 62.0681 11.4697C62.5645 12.6042 62.8127 13.8219 62.8127 15.1222C62.8127 16.4224 62.5645 17.6042 62.0681 18.7387C61.5717 19.8732 60.8976 20.866 60.0472 21.7171C59.1961 22.5682 58.1974 23.2416 57.0508 23.738C55.9037 24.2344 54.6933 24.4826 53.4163 24.4826ZM53.4163 9.05954C52.5653 9.05954 51.7621 9.21924 51.0049 9.53797C50.2483 9.85737 49.5922 10.2886 49.0372 10.8322C48.4816 11.3765 48.0378 12.014 47.7071 12.7473C47.3757 13.4799 47.2107 14.2718 47.2107 15.1228C47.2107 15.9739 47.3757 16.7657 47.7071 17.4984C48.0378 18.231 48.4809 18.8751 49.0372 19.4307C49.5922 19.9863 50.2483 20.4235 51.0049 20.7429C51.7608 21.0623 52.5646 21.2214 53.4163 21.2214C54.2681 21.2214 55.0646 21.0617 55.8098 20.7429C56.5544 20.4235 57.2039 19.987 57.7602 19.4307C58.3151 18.8758 58.753 18.2316 59.0724 17.4984C59.3918 16.7664 59.5508 15.9739 59.5508 15.1228C59.5508 14.2718 59.3911 13.4799 59.0724 12.7473C58.753 12.0153 58.3158 11.3765 57.7602 10.8322C57.2046 10.2886 56.5551 9.85737 55.8098 9.53797C55.0652 9.21857 54.2674 9.05954 53.4163 9.05954Z" fill="black"></path></g><defs><clipPath id="clip0_1111_2"><rect width="116" height="25" fill="white"></rect></clipPath></defs></svg>